/* XPM */
static const char *_draw[] = {
/* width height num_colors chars_per_pixel */
"    17    17        5            1",
/* colors */
". c None",
"# c #666600",
"a c #333300",
"b c #ffff99",
"c c #000000",
/* pixels */
".............cc..",
"............cbbc.",
"............cbb#a",
"...........cbb##a",
"...........cbb#a.",
"..........cbb##a.",
"..........cbb#a..",
".........cbb##a..",
".........cbb#a...",
"........cbb##a...",
"........cbb#a....",
".cc.....cc##a....",
"c.cc....cccc.....",
"...c....ccc......",
"...cc...cc.......",
"....cc.cc........",
".....ccc........."
};
