/* XPM */
static const char *_draw_disabled[] = {
/* width height num_colors chars_per_pixel */
"    17    17        4            1",
/* colors */
". c None",
"# c #cccccc",
"a c #999999",
"b c #666666",
/* pixels */
".............bb..",
"............b##b.",
"............b##ab",
"...........b##aab",
"...........b##ab.",
"..........b##aab.",
"..........b##ab..",
".........b##aab..",
".........b##ab...",
"........b##aab...",
"........b##ab....",
".bb.....bbaab....",
"b.bb....bbbb.....",
"...b....bbb......",
"...bb...bb.......",
"....bb.bb........",
".....bbb........."
};
